Patient4_TMGait_0pt5_02_right_22_EMG.mot
version=1
nRows=26
nColumns=33
inDegrees=no
endheader
time	1LAddLong	2LGlutMax	3LGlutMed	4LIliopsoas	5LSemiMemb	6LBicFemLong	7LRecFem	8LVastMed	9LVastLat	10LGasMed	11LTibAnt	12lTibPost	13LPeroneusLong	14LSol	15LExtDigLong	16LFlexDigLong	17RAddLong	18RGlutMax	19RGlutMed	20RIliopsoas	21RSemiMemb	22RBicFemLong	23RRecFem	24RVastMed	25RVastLat	26RGasMed	27RTibAnt	28RTibPost	29RPeroneusLong	30RSol	31RExtDigLong	32RFlexDigLong
29.555	0.014648	-0.14999	-0.082245	-0.002899	0.050354	0.050659	-0.004425	0.010376	0.056305	0.013733	-0.044403	0.000916	0.04303	0.018005	-0.00412	0.001221	0.014191	-0.26016	0.14999	0.12985	0.088196	-0.050507	-0.20828	-0.017242	-0.03479	-0.000305	-0.026855	-0.018158	0.083923	-0.14572	0.001373	-0.022583
29.556	0.016785	-0.19363	-0.11643	0.007935	0.027924	-0.09552	-0.001221	0.007019	0.14679	0.010223	-0.019226	0	0.034027	0.015869	-0.046539	0.003052	0.002594	-0.24353	0.15472	0.17807	0.016327	-0.002136	-0.20035	-0.028534	-0.02121	0.025787	0.017853	-0.016785	0.034637	-0.069733	0.001221	-0.020447
29.557	0.014954	-0.21835	-0.12161	-0.001984	0.002136	-0.21759	0.061493	-0.004425	0.13855	-0.009003	0.046692	-0.005798	0.019836	0.010071	-0.083466	0.001068	0.006714	-0.28549	0.1326	0.15228	-0.031281	-0.049591	-0.19134	-0.029755	-0.022583	0.030518	0.074768	-0.022125	-0.062256	-0.061035	0.00351	-0.025787
29.558	0.00351	-0.18997	-0.078735	-0.007019	-0.056458	-0.47287	0.10757	-0.023499	0.056915	-0.000916	0.077972	0.00412	0.004883	0.024567	-0.002289	0.001831	0.014496	-0.30899	0.18372	0.091705	-0.19531	-0.005341	-0.22247	-0.035248	-0.036621	0.00473	0.081024	0.008545	-0.10117	-0.099945	0.000305	-0.02121
29.559	-0.017395	-0.12726	-0.12314	0.001068	-0.09903	-0.37643	0.1355	-0.019379	0.006104	0.015411	0.026245	-0.007477	0.025482	0.032654	0.052643	0.005035	0.007477	-0.33417	0.13245	0.083618	-0.009308	0.012665	-0.2092	-0.070038	-0.026398	0.002136	0.096741	0.014191	-0.074158	-0.103	0.003815	-0.014343
29.56	-0.037537	-0.045319	-0.14084	0.023651	-0.082245	-0.16785	0.16739	-0.002441	-0.04715	0.020599	-0.014954	-0.002289	0.023041	0.014648	0.09964	-0.003052	0.017395	-0.23911	0.083008	0.055847	0.027771	-0.086212	-0.22354	-0.049133	-0.003815	0.002594	0.1178	-0.005646	-0.032959	0.018616	0.001373	-0.027161
29.561	-0.047455	-0.027924	-0.121	0.029602	-0.014191	-0.11444	0.15259	0.000916	-0.090027	0.005188	-0.019226	-0.000458	0.012512	0.03067	0.19852	0.007629	-0.003052	-0.23727	0.095062	-0.032959	0.044403	-0.14297	-0.25207	-0.007172	-0.023041	0.002747	0.061798	-0.002899	-0.016937	0.03067	0.000763	-0.019379
29.562	-0.048523	0.00946	-0.037842	-0.004883	0.045929	-0.087433	0.090637	-0.003967	0.019531	0.007629	0.009155	0.001221	-0.072021	0.019836	0.18524	0.001831	-0.001831	-0.19943	0.071564	-0.10132	-0.041504	-0.12466	-0.20325	-0.056152	-0.028381	0.001984	0.069733	0.002289	0.05127	-0.085297	0.001526	-0.022278
29.563	-0.034943	0.051422	0.027924	-0.006104	-0.016785	0.018616	0.014496	0.000305	0.054016	-0.005341	-0.027924	0.002136	-0.058289	0.011292	0.092316	0.000305	0.046082	-0.16144	0.055084	-0.083466	-0.11063	-0.10361	-0.18372	-0.045929	-0.035858	0.001526	0.17883	-0.001526	-0.000458	-0.224	-0.001678	-0.021667
29.564	-0.016327	0.046234	0.029755	0.010681	0.014191	0.067902	-0.044403	0.008545	0.022278	0.00351	0.001678	0.009003	0.050201	-0.014496	0.031586	0.003052	0.038757	-0.28839	0.069733	-0.002441	-0.088043	-0.050201	-0.24506	-0.024109	-0.001678	-0.006104	0.12817	-0.003204	0.07019	-0.15106	0.006256	-0.019073
29.565	-0.001526	0.075836	0.048523	0.00351	0.079346	0.17685	-0.032959	0.020294	-0.071106	0.030518	0.005035	0.001831	0.019531	-0.020294	-0.013733	0.001068	0.037231	-0.22492	-0.013123	0.11688	-0.072021	-0.12268	-0.20493	-0.032806	-0.020905	-0.00412	0.22964	-0.00412	0.18249	-0.084229	0.004425	-0.014038
29.566	0.003662	0.10864	0.086823	0.008392	0.041199	0.28214	-0.095825	0.018005	-0.18097	0.01297	-0.002747	0.002136	0.050507	-0.01236	-0.02121	-0.000916	0.00885	-0.23209	-0.034332	0.12863	-0.060272	-0.13855	-0.20798	-0.014648	-0.023193	-0.009766	0.34058	0.005341	0.14816	-0.027008	0.001068	-0.015106
29.567	-0.00473	0.1181	0.062561	0.007782	0.038147	0.16434	-0.13733	0.015411	-0.09613	0.00946	-0.001831	0.00473	0.19867	0.004272	0.029449	0.006866	-0.007172	-0.26443	0.072327	0.063019	-0.058594	-0.070648	-0.24567	0.01236	-0.008545	-0.002899	0.2948	-0.006561	0.030212	-0.008087	-0.002747	-0.020294
29.568	-0.010986	0.13489	0.027161	0.012207	0.016022	0.050507	-0.11948	0.011292	0.059052	-0.008392	-0.01358	-0.003204	0.13611	0.066071	0.049438	0.007629	-0.029449	-0.2536	0.018768	-0.011292	0.004883	0.25116	-0.242	0.043793	-0.015411	-0.014038	-0.1532	-0.00473	0.035858	0.000458	0.008698	-0.020142
29.569	-0.018616	0.14008	0.070953	0.000305	-0.06012	0.04715	-0.17792	0.011292	0.13107	0.016479	-0.009918	0.006866	0.12695	0.078278	0.018921	-0.00061	-0.050049	-0.25681	0.014801	-0.024872	-0.010834	0.18524	-0.2626	0.04425	-0.015869	-0.005646	-0.56442	-0.005646	0.073547	0.010834	0.006409	-0.011902
29.57	-0.016479	0.11795	0.071259	-0.003204	-0.085144	0.14679	-0.14297	-0.002594	0.15564	-0.031738	-0.012207	0.006561	0.045319	0.071869	-0.000305	-0.005035	-0.036316	-0.22339	0.019531	0.004578	0.014191	-0.003662	-0.26154	0.035858	-0.015106	0.004272	-0.63019	-0.009003	0.079803	0.032349	0.005035	-0.024109
29.571	-0.017242	0.2211	0.053558	-0.001678	-0.083618	0.075378	0.050201	-0.031433	0.11917	0.016479	-0.023041	0.002747	-0.058441	0.050507	-0.008087	0.008087	-0.010681	-0.21332	0.001373	-0.041962	-0.038147	-0.018005	-0.2475	0.033722	-0.027771	-0.01358	-0.64179	0.000305	0.17334	0.081024	0	-0.028076
29.572	-0.002289	0.25848	-0.000458	-0.005646	-0.045319	-0.27786	0.15045	-0.023346	0.000916	0.027161	-0.046692	0.009918	-0.000305	0.031891	-0.038605	-0.000763	0.000153	-0.20355	-0.071869	-0.008087	-0.069885	0.012207	-0.24887	0.004883	-0.041809	-0.009766	-0.466	0.001831	0.25055	0.14389	0.007172	-0.024567
29.573	0.024872	0.26794	0.00061	0.015259	0.048676	-0.47485	0.062561	-0.021667	-0.074615	0.003815	-0.082397	0.007782	-0.29144	-0.043488	-0.12146	0.009155	-0.001526	-0.24628	-0.051117	0.022736	-0.032196	0.013885	-0.25894	-0.00473	-0.022888	-0.007172	-0.24017	-0.010376	0.28046	0.23117	0.007324	-0.019531
29.574	0.056915	0.25589	-0.011139	0.018463	0.14358	-0.34653	0.03418	-0.016327	-0.031891	0.018311	-0.12634	0.007477	-0.23987	-0.027924	-0.07431	0.009918	0.000916	-0.23666	-0.04303	0.062103	0.059052	0.00824	-0.24582	-0.019836	-0.021973	0.00412	0.023499	-0.011292	-0.015869	0.20706	0.008698	-0.024414
29.575	0.05188	0.28137	-0.018921	0.00473	0.16174	-0.18204	0.1001	-0.001373	-0.022583	-0.012665	-0.11917	0.00946	0.068665	0.027313	-0.005341	0.011139	0.018921	-0.23178	-0.088043	0.07309	0.068512	0.027924	-0.23392	-0.080261	-0.053558	-0.009613	0.037231	0.001831	-0.37415	0.14313	0.006409	-0.023346
29.576	0.018921	0.27893	-0.004425	0.008698	0.082245	0.044708	0.10346	-0.001221	-0.06897	0.035095	-0.033875	0.020447	-0.012054	0.053406	0.039978	0.003357	0.008392	-0.23041	-0.10468	0.086212	-0.028381	0.055695	-0.23544	0.006104	-0.0354	-0.007172	-0.001831	-0.008545	-0.29877	0.1062	0.015106	-0.016174
29.577	-0.00885	0.19363	-0.16815	0.012665	-0.019379	0.10437	0.062866	0.009003	-0.13092	0.009766	0.08667	0.018921	-0.29068	0.059509	0.073242	0.008392	-0.015259	-0.177	-0.071869	-0.010986	-0.31662	0.10437	-0.24277	0.034943	-0.005341	-0.010986	-0.027313	-0.005951	-0.17532	0.088654	0.013275	-0.018768
29.578	-0.019226	0.14435	-0.23789	0.00946	-0.052185	0.08255	0.017548	0.021515	-0.053101	0.016937	0.1709	0.014648	-0.26825	0.03891	0.085907	0.028381	-0.003967	-0.22736	-0.12329	-0.031281	-0.1384	0.047913	-0.25436	-0.035095	-0.016327	-0.016022	-0.015259	-0.001526	-0.049744	0.073547	0.006256	-0.006714
29.579	-0.005951	0.17029	-0.19348	0.007782	-0.13153	0.003204	-0.004578	0.021973	0.15411	-0.029602	-0.023499	0.016937	0.1622	0.039368	-0.00061	0.021667	0.004883	-0.25665	-0.095367	-0.22385	-0.056915	0.016479	-0.26276	-0.022736	-0.026093	-0.013123	-0.030365	-0.006104	0.09964	0.087128	0.012207	-0.011139
29.58	-0.00412	0.14587	-0.036163	0.000458	-0.23422	-0.17578	-0.024872	0.034637	0.18585	-0.025024	-0.025024	0.020447	0.35523	0.031891	-0.069885	0.022736	0.006714	-0.26596	-0.024872	-0.3862	-0.086823	-0.025787	-0.2449	-0.002289	-0.013428	-0.016174	-0.13336	0.001526	0.28412	0.062103	0.01358	-0.017853
